<svg width="75" height="75" viewBox="0 0 75 75" fill="none" xmlns="http://www.w3.org/2000/svg">
<path d="M74.2651 38.4663C75.1383 44.3876 73.4519 49.6405 71.2533 53.6215C70.0781 55.7494 68.7605 57.5061 67.621 58.7958C66.4682 60.1005 65.5302 60.8906 65.1239 61.1221C61.5793 63.1422 58.2992 63.8747 55.329 63.6864C52.3574 63.498 49.6612 62.3857 47.2898 60.6611C44.9434 58.9546 42.5661 55.8327 41.1383 52.2744C39.8037 48.9486 39.3276 45.3168 40.4045 42.1566C42.6424 44.0359 45.3189 45.2686 47.4779 46.0416C48.6511 46.4617 49.6804 46.749 50.4174 46.9316C50.7862 47.0229 51.0822 47.0882 51.2873 47.1308C51.3898 47.1521 51.4696 47.1677 51.5243 47.1782L51.5874 47.1899L51.6043 47.193L51.609 47.1938L51.6093 47.1939L51.6098 47.194L51.6105 47.1941L51.6109 47.1942L51.611 47.1942L51.6154 47.195L51.6313 47.1977L51.6908 47.2077C51.7425 47.2163 51.818 47.2284 51.9154 47.2431C52.11 47.2724 52.3919 47.3118 52.7449 47.3529C53.4504 47.4352 54.4418 47.5246 55.5887 47.5536C57.8713 47.6112 60.8172 47.4312 63.351 46.4437C67.9279 44.66 71.299 42.8227 74.2651 38.4663ZM42.5679 37.5011C45.3692 36.694 47.8902 35.1523 49.7417 33.7841C50.7467 33.0415 51.5622 32.3442 52.1272 31.8319C52.4098 31.5755 52.6302 31.3651 52.7806 31.218C52.8559 31.1445 52.9137 31.0867 52.953 31.0469L52.9982 31.0009L53.0103 30.9885L53.0136 30.9851L53.0138 30.9848L53.0141 30.9845L53.0146 30.984L53.0149 30.9837L53.015 30.9836L53.0181 30.9804L53.0293 30.9687L53.0711 30.9247C53.1072 30.8864 53.1597 30.8302 53.2266 30.7572C53.3604 30.6112 53.5516 30.3981 53.7845 30.1266C54.2498 29.584 54.8825 28.8067 55.5536 27.8654C56.8895 25.9918 58.4052 23.4314 59.0305 20.7601C60.1619 15.9273 60.5674 12.0735 58.6851 7.13023C64.0028 9.74344 67.3325 14.1168 69.3369 18.2024C70.4081 20.3858 71.0964 22.4788 71.5045 24.1595C71.9171 25.8592 72.0319 27.0902 71.991 27.5625C71.6359 31.6665 70.3797 34.8228 68.5469 37.1996C66.7135 39.577 64.2828 41.2009 61.5382 42.2073C58.8228 43.2029 54.9368 43.4251 51.2318 42.6085C47.765 41.8445 44.5343 40.1895 42.5679 37.5011ZM24.3301 31.3071C27.7873 32.1142 30.9977 33.8093 32.9314 36.5221C30.1205 37.2942 27.581 38.8044 25.713 40.1494C24.699 40.8795 23.8752 41.5666 23.304 42.0719C23.0182 42.3247 22.7953 42.5323 22.6431 42.6775C22.567 42.7501 22.5085 42.8072 22.4686 42.8465L22.4229 42.8919L22.4107 42.9042L22.4073 42.9076L22.4071 42.9078L22.4068 42.9081L22.4063 42.9086L22.406 42.9089L22.4059 42.909L22.4027 42.9122L22.3914 42.9238L22.3491 42.9672C22.3125 43.0051 22.2593 43.0606 22.1915 43.1328C22.056 43.2771 21.8622 43.4878 21.6261 43.7563C21.1541 44.2932 20.5121 45.0626 19.8296 45.9954C18.4709 47.8523 16.9243 50.3936 16.2665 53.057C15.0766 57.8752 14.6242 61.7236 16.4462 66.6898C11.1607 64.0106 7.88445 59.5961 5.92984 55.4859C4.88522 53.2893 4.22243 51.1879 3.83483 49.5022C3.44288 47.7975 3.34306 46.5651 3.38966 46.0934C3.79462 41.9941 5.08913 38.8538 6.95066 36.5C8.81277 34.1456 11.263 32.5521 14.0196 31.58C16.7469 30.6183 20.6352 30.4445 24.3301 31.3071ZM52.5463 70.9881C47.5584 74.2133 42.1294 74.7952 37.6396 74.3843C35.242 74.1648 33.121 73.6627 31.4936 73.1348C29.8473 72.6008 28.7528 72.0557 28.3784 71.7745C25.1116 69.3207 23.1129 66.5856 22.0717 63.76C21.03 60.9329 20.9356 57.9844 21.5263 55.0881C22.1107 52.2218 23.9601 48.7523 26.5884 45.984C29.0458 43.3957 32.1264 41.4791 35.4117 41.1881C34.6244 44.0245 34.6019 47.0046 34.7841 49.3176C34.8829 50.5726 35.0428 51.6405 35.1782 52.3957C35.2459 52.7735 35.3076 53.0736 35.3526 53.2803C35.3751 53.3836 35.3935 53.4637 35.4063 53.5184L35.4214 53.5814L35.4255 53.5983L35.4267 53.6029L35.4267 53.6032L35.4268 53.6037L35.427 53.6043L35.4271 53.6048L35.4272 53.6049L35.4282 53.6093L35.4322 53.625L35.4473 53.684C35.4607 53.7352 35.4805 53.8099 35.5069 53.9057C35.5597 54.0974 35.6389 54.3739 35.7455 54.7167C35.9585 55.402 36.2815 56.3544 36.7223 57.4258C37.5997 59.5584 38.9612 62.2064 40.8831 64.1452C44.3596 67.6523 47.3939 70.0224 52.5463 70.9881ZM23.4898 26.7109L23.4897 26.7109L23.4853 26.71L23.4695 26.707L23.4102 26.6958C23.3587 26.6863 23.2834 26.6728 23.1863 26.6563C22.9923 26.6234 22.7111 26.5787 22.359 26.531C21.6551 26.4356 20.6655 26.3277 19.5193 26.2773C17.2381 26.177 14.2895 26.302 11.738 27.242C7.12938 28.9398 3.72532 30.7139 0.680233 35.0142C-0.0850139 29.0775 1.69694 23.8569 3.96779 19.9176C5.18154 17.812 6.5309 16.0802 7.69379 14.812C8.87013 13.5291 9.82234 12.7568 10.2328 12.5329C13.8135 10.5793 17.1064 9.90821 20.0727 10.152C23.0403 10.3959 25.7159 11.5584 28.0554 13.327C30.3704 15.0771 32.6904 18.243 34.0531 21.8273C35.3268 25.1775 35.7366 28.8174 34.6023 31.9569C32.3992 30.0361 29.7457 28.7536 27.6011 27.9404C26.4357 27.4986 25.4119 27.192 24.6783 26.9957C24.3113 26.8975 24.0165 26.8267 23.8123 26.7803C23.7102 26.7571 23.6307 26.74 23.5761 26.7285L23.5133 26.7156L23.4964 26.7122L23.4917 26.7113L23.4914 26.7112L23.491 26.7111L23.4903 26.711L23.4898 26.7109ZM39.3981 33.6903C40.1151 30.8351 40.0641 27.8555 39.8249 25.5479C39.6952 24.2958 39.509 23.2322 39.355 22.4806C39.278 22.1047 39.2089 21.8062 39.1588 21.6008C39.1337 21.498 39.1134 21.4185 39.0992 21.364L39.0826 21.3014L39.0781 21.2847L39.0768 21.2801L39.0767 21.2798L39.0766 21.2793L39.0764 21.2787L39.0763 21.2782L39.0762 21.2781L39.075 21.2738L39.0707 21.2581L39.0541 21.1996C39.0395 21.1487 39.0179 21.0745 38.9891 20.9794C38.9316 20.7891 38.8456 20.5147 38.7306 20.1747C38.5007 19.495 38.1543 18.551 37.6872 17.4911C36.7575 15.3814 35.331 12.7685 33.3618 10.8788C29.7999 7.46079 26.7081 5.16811 21.5336 4.33287C26.4405 0.982491 31.8535 0.263523 36.352 0.56087C38.7543 0.719658 40.887 1.16804 42.527 1.65463C44.1858 2.14683 45.2934 2.66401 45.6746 2.93567C49.0008 5.30608 51.0664 7.98969 52.1769 10.7881C53.288 13.5879 53.4552 16.5331 52.9362 19.4434C52.4226 22.3237 50.6594 25.8389 48.1002 28.6728C45.7074 31.3224 42.6751 33.3163 39.3981 33.6903Z" fill="#00e673" stroke="black"/>
</svg>
